<svg fill="#004c99" xmlns="http://www.w3.org/2000/svg" xmlns:xlink="http://www.w3.org/1999/xlink" version="1.1" x="0px" y="0px" viewBox="0 0 90 90" enable-background="new 0 0 90 90" xml:space="preserve"><path fill-rule="evenodd" clip-rule="evenodd" d="M82.705,20.756l-6.564-6.565c-0.297-0.297-0.611-0.566-0.936-0.806l0.086-0.875  l1.672-10.089L66.527,7.438h-2.769c-12.896,0-23.351,10.454-23.351,23.352h-0.808H14.48c-4.617,0-8.36,3.742-8.36,8.36v48.144h7.419  l4.613-27.561c0,0,8.188,3.69,17.874,3.69s16.606-3.458,16.606-3.458l4.958,27.328h7.266c0,0-1.154-47.279,4.727-56.504l0.144-0.058  l1.502,1.502c2.9,2.9,7.354,3.149,9.947,0.558l2.088-2.086C85.855,28.11,85.606,23.658,82.705,20.756z M22.695,57.733  c-0.938,0-1.701-0.759-1.701-1.699c0-0.941,0.762-1.7,1.7-1.7c0.939,0,1.701,0.759,1.701,1.698  C24.395,56.975,23.634,57.733,22.695,57.733z M22.695,50.932c-0.938,0-1.701-0.76-1.701-1.699c0-0.94,0.762-1.701,1.701-1.701  c0.939,0,1.701,0.761,1.701,1.701C24.396,50.172,23.634,50.932,22.695,50.932z M34.387,40.241c-1.588-0.025-3.003-0.741-4.061-1.798  c-1.183-1.182-1.523,0.127-1.523,0.127c0.051,3.068-2.397,5.517-5.468,5.468c-3.029-0.05-5.531-2.514-5.644-5.528  c-0.001-0.041,0.008-0.081-0.003-0.12c-0.44-1.583-1.866,0.152-1.866,0.152c-0.967,0.854-2.25,1.363-3.666,1.34  c-1.145-0.019-2.214-0.382-3.108-0.989l0.106-0.231c1.28-2.653,4.004-4.447,7.19-4.396l23.462,0.38l0.048,0.129  C39.905,37.844,37.457,40.291,34.387,40.241z M46.64,39.815c-0.664,0.664-1.74,0.664-2.405,0.001c-0.664-0.665-0.664-1.741,0-2.405  c0.665-0.665,1.741-0.665,2.405,0C47.305,38.075,47.305,39.152,46.64,39.815z M51.45,44.625c-0.663,0.665-1.741,0.665-2.404,0  c-0.665-0.664-0.665-1.74-0.001-2.404c0.663-0.664,1.742-0.664,2.404,0C52.112,42.885,52.114,43.961,51.45,44.625z M56.15,49.483  c-0.664,0.664-1.74,0.664-2.405,0c-0.663-0.664-0.663-1.739,0.001-2.404s1.74-0.665,2.404,0S56.814,48.819,56.15,49.483z   M61.038,54.213c-0.665,0.664-1.74,0.664-2.405,0c-0.664-0.662-0.663-1.741,0-2.405c0.665-0.662,1.742-0.662,2.405,0  C61.702,52.472,61.702,53.551,61.038,54.213z M73.168,22.211c-0.938,0-1.7-0.762-1.7-1.701c0-0.94,0.763-1.701,1.7-1.701  c0.94,0,1.701,0.761,1.701,1.701C74.87,21.45,74.108,22.211,73.168,22.211z"></path></svg>